<?xml version="1.0" encoding="utf-8"?>
<!-- Generator: Adobe Illustrator 26.5.0, SVG Export Plug-In . SVG Version: 6.00 Build 0)  -->
<svg version="1.1" id="Livello_1" xmlns="http://www.w3.org/2000/svg" xmlns:xlink="http://www.w3.org/1999/xlink" x="0px" y="0px"
	 viewBox="0 0 24 24" style="enable-background:new 0 0 24 24;" xml:space="preserve">
<style type="text/css">
	.st0{fill:#1D1D1B;}
</style>
<path class="st0" d="M12,0C5.4,0,0,5.4,0,12s5.4,12,12,12s12-5.4,12-12S18.6,0,12,0z M18,11.3c-0.3,0.6-0.7,1.1-1.2,1.4
	c-0.5,0.3-1,0.6-1.5,0.7c-0.7,0.1-1.7,0.2-3,0.2h-1.9v5.5H7.4V4.5h4.7c1.8,0,3,0.1,3.5,0.2c0.8,0.2,1.5,0.7,2.1,1.4
	c0.6,0.7,0.8,1.7,0.8,2.8C18.5,9.9,18.4,10.7,18,11.3z"/>
<path class="st0" d="M15.5,9.1c0,0.4-0.1,0.8-0.3,1.1c-0.2,0.3-0.5,0.6-0.9,0.7c-0.4,0.2-1.2,0.2-2.3,0.2h-1.6V7h1.4
	c1.1,0,1.8,0,2.1,0.1c0.5,0.1,0.9,0.3,1.2,0.6C15.3,8.1,15.5,8.5,15.5,9.1z"/>
</svg>
